Coordinates
version=1
nRows=16
nColumns=42
inDegrees=yes

Units are S.I. units (second, meters, Newtons, ...)
If the header above contains a line with 'inDegrees', this indicates whether rotational values are in degrees (yes) or radians (no).

endheader
time	pelvis_tilt	pelvis_list	pelvis_rotation	pelvis_tx	pelvis_ty	pelvis_tz	hip_flexion_r	hip_adduction_r	hip_rotation_r	knee_angle_r	knee_adduction_r	knee_angle_r_beta	ankle_angle_r	subtalar_angle_r	mtp_angle_r	hip_flexion_l	hip_adduction_l	hip_rotation_l	knee_angle_l	knee_adduction_l	knee_angle_l_beta	ankle_angle_l	subtalar_angle_l	mtp_angle_l	lumbar_extension	lumbar_bending	lumbar_rotation	arm_flex_r	arm_add_r	arm_rot_r	elbow_flex_r	pro_sup_r	wrist_flex_r	wrist_dev_r	arm_flex_l	arm_add_l	arm_rot_l	elbow_flex_l	pro_sup_l	wrist_flex_l	wrist_dev_l
      1.94000000	     -9.34710073	     -1.26714620	     -3.18001626	      0.42471415	      0.91349674	     -0.07822113	     -8.73915225	      8.70005431	     -2.14912978	      3.57911986	     -7.40243384	      0.06246743	     24.57784472	      8.32610112	     -7.50807906	     36.64982669	     -1.46907037	     -4.89530416	      8.72345971	     -4.91421641	      0.15225309	      6.89622159	      5.60575961	     -7.50807906	      1.15806623	     -0.46723823	      3.18535892	      8.80045242	    -17.67644928	      1.48330226	     39.76836141	     90.00000001	      0.00000000	      0.00000000	    -17.10574823	    -10.51021350	    -17.04165422	     14.72566429	     90.00000001	      0.00000000	      0.00000000
      1.95000000	     -9.35740819	     -1.08753897	     -3.37925335	      0.43662704	      0.91195050	     -0.07838715	     -9.28576999	      8.29280986	     -1.98193549	      4.13875727	     -7.21050441	      0.07223494	     24.62788549	      8.17004524	     -7.50796804	     36.90875562	     -1.28449001	     -5.11883444	      9.73149687	     -5.00891568	      0.16984666	      6.32547054	      4.94889518	     -7.50796804	      1.17692534	     -0.85401931	      3.32970061	      8.59968578	    -17.58950429	      1.35702618	     39.81275960	     90.00000001	      0.00000000	      0.00000000	    -16.95223446	    -10.68229316	    -16.92831434	     14.48704520	     90.00000001	      0.00000000	      0.00000000
      1.96000000	     -9.53088321	     -0.87470067	     -3.60397469	      0.44844006	      0.91056341	     -0.07843552	     -9.58930447	      7.87438851	     -1.49915780	      4.83162729	     -7.04655536	      0.08432780	     24.46440921	      7.57617657	     -7.50757631	     37.21847286	     -1.05835981	     -4.31676604	     10.89501555	     -5.04043841	      0.19015389	      5.22185876	      2.70015799	     -7.50757631	      1.37314600	     -1.29643800	      3.57582538	      8.28600853	    -17.38327941	      0.90166104	     39.73935593	     90.00000001	      0.00000000	      0.00000000	    -16.63628415	    -10.89670931	    -16.89022141	     14.16182737	     90.00000001	      0.00000000	      0.00000000
      1.97000000	     -9.44219204	     -0.59034909	     -3.69184190	      0.46073999	      0.90969223	     -0.07866669	    -10.15403724	      7.33766937	     -1.32674392	      5.56559488	     -6.84600135	      0.09713796	     24.20184457	      7.48072204	     -7.50749618	     37.28173872	     -0.74020958	     -3.75238858	     12.32599708	     -4.99939096	      0.21512923	      4.58172188	      2.33909495	     -7.50749618	      1.29463169	     -1.87048243	      3.60549126	      7.96802359	    -17.21131192	      0.87727320	     39.65914802	     90.00000001	      0.00000000	      0.00000000	    -16.43512513	    -11.12952521	    -16.80785877	     14.16461458	     90.00000001	      0.00000000	      0.00000000
      1.98000000	     -9.61949831	     -0.26948562	     -3.59335534	      0.47277406	      0.90896163	     -0.07918423	    -10.30741981	      6.76287878	     -1.10636794	      6.50098985	     -6.54504269	      0.11346368	     23.67051628	      6.37373588	     -7.50704424	     37.70260268	     -0.21909402	     -1.98963563	     14.16033986	     -4.82933477	      0.24714455	      2.58306834	     -1.82929112	     -7.50704424	      1.49952988	     -2.47527331	      3.52764518	      7.55447015	    -16.83580716	      0.27294046	     39.39899424	     90.00000001	      0.00000000	      0.00000000	    -15.95294814	    -11.42102381	    -16.57676945	     13.80684274	     90.00000001	      0.00000000	      0.00000000
      1.99000000	     -9.59117277	      0.14751787	     -3.56547829	      0.48531886	      0.90878744	     -0.07973818	    -10.62864348	      5.99086828	     -0.93842012	      7.54581652	     -6.13820578	      0.13169934	     23.01310781	      5.71573832	     -7.50670196	     37.88930350	      0.25578174	     -0.83682609	     16.08179172	     -4.50871742	      0.28068022	      1.44055793	     -4.11146690	     -7.50670196	      1.51742191	     -3.19101564	      3.53275420	      7.05815762	    -16.52045025	     -0.13938824	     39.10563058	     90.00000001	      0.00000000	      0.00000000	    -15.50674531	    -11.70130172	    -16.35937427	     13.68543006	     90.00000001	      0.00000000	      0.00000000
      2.00000000	     -9.31695213	      0.56243087	     -3.42679989	      0.49831053	      0.90917595	     -0.08041602	    -11.15030828	      5.20072179	     -1.05687609	      8.72635737	     -5.70196811	      0.15230367	     22.06873598	      5.26644229	     -7.50657569	     37.83940443	      0.73247477	     -0.06910246	     18.13188579	     -4.10590721	      0.31646111	      0.93997649	     -5.12704949	     -7.50657569	      1.27245514	     -3.93351300	      3.35182277	      6.55376210	    -16.17188781	     -0.35096882	     38.80801142	     90.00000001	      0.00000000	      0.00000000	    -15.04511650	    -11.99475927	    -16.14257063	     13.60529702	     90.00000001	      0.00000000	      0.00000000
      2.01000000	     -9.42759035	      0.88340700	     -3.18489902	      0.51095978	      0.90962030	     -0.08118431	    -11.05279713	      4.57377000	     -0.90118977	     10.26410980	     -5.22725393	      0.17914251	     20.86536622	      4.04225169	     -7.50621046	     37.94479321	      1.21359071	      2.07163763	     19.73979278	     -3.38003790	      0.34452438	     -0.46272310	     -8.65312557	     -7.50621046	      1.43803834	     -4.55143727	      3.17605177	      5.94203565	    -15.70652161	     -0.98215721	     38.30196527	     90.00000001	      0.00000000	      0.00000000	    -14.48622820	    -12.29195980	    -15.72829792	     13.54624532	     90.00000001	      0.00000000	      0.00000000
      2.02000000	     -9.09373074	      1.26021745	     -2.98998678	      0.52435458	      0.91080489	     -0.08208234	    -11.38770412	      3.79113107	     -1.11289396	     11.87325963	     -4.71279856	      0.20722747	     19.35906337	      3.43355319	     -7.50607880	     37.57890749	      1.67388465	      2.81723034	     21.41133791	     -2.82388217	      0.37369834	     -0.46577834	     -9.59390134	     -7.50607880	      1.16221226	     -5.20991843	      2.98518606	      5.31226381	    -15.35562088	     -1.24315953	     37.82374071	     90.00000001	      0.00000000	      0.00000000	    -13.90922671	    -12.55495279	    -15.45796959	     13.54037213	     90.00000001	      0.00000000	      0.00000000
      2.03000000	     -8.79588524	      1.51360077	     -2.75880869	      0.53769832	      0.91228450	     -0.08306470	    -11.50388731	      3.07529827	     -1.27798498	     13.77592046	     -4.00829309	      0.24043517	     17.56439211	      2.78655538	     -7.50597844	     37.07623670	      2.02979733	      3.62204571	     22.72786372	     -2.22515782	      0.39667605	     -0.27962037	    -10.41712937	     -7.50597844	      0.91206199	     -5.70199820	      2.78661220	      4.62747411	    -14.98805382	     -1.52638630	     37.23834880	     90.00000001	      0.00000000	      0.00000000	    -13.25858117	    -12.77646294	    -15.17681657	     13.62148430	     90.00000001	      0.00000000	      0.00000000
      2.04000000	     -8.88342074	      1.76004539	     -2.39407657	      0.55059654	      0.91375561	     -0.08408484	    -10.86395451	      2.53128900	     -1.30424761	     16.25607694	     -3.49538533	      0.28372207	     15.61443915	      1.04688618	     -7.50574029	     36.72853260	      2.55612143	      5.14998499	     23.52326313	     -1.64609492	      0.41055839	     -0.81203925	    -12.55999288	     -7.50574029	      1.07929813	     -6.18650951	      2.54522222	      3.93366046	    -14.47740254	     -2.19441495	     36.40415082	     90.00000001	      0.00000000	      0.00000000	    -12.55037186	    -13.04421843	    -14.61038996	     13.70817481	     90.00000001	      0.00000000	      0.00000000
      2.05000000	     -8.58067340	      1.93295222	     -2.05822373	      0.56381119	      0.91584289	     -0.08516084	    -10.55949255	      1.99993968	     -1.59858191	     18.78734343	     -2.98817318	      0.32790100	     13.30655607	      0.08102470	     -7.50562590	     35.87542752	      2.97483495	      5.58909840	     24.18868665	     -1.35361097	      0.42217222	     -0.23927129	    -12.91448724	     -7.50562590	      0.81690587	     -6.55613500	      2.25350256	      3.27382009	    -14.08969139	     -2.40636844	     35.58680267	     90.00000001	      0.00000000	      0.00000000	    -11.78408648	    -13.25538369	    -14.25841420	     13.84064959	     90.00000001	      0.00000000	      0.00000000
      2.06000000	     -8.36305156	      2.05885556	     -1.72892093	      0.57674475	      0.91808483	     -0.08625634	     -9.86738785	      1.54286856	     -1.96343507	     21.74661966	     -2.59465258	      0.37955011	     10.87415579	     -1.06793938	     -7.50552984	     34.97109386	      3.36742936	      5.71879112	     24.55396331	     -1.26789195	      0.42854750	      0.52145001	    -12.93816160	     -7.50552984	      0.64234452	     -6.84193824	      1.99663194	      2.65873865	    -13.68768548	     -2.64156451	     34.61277925	     90.00000001	      0.00000000	      0.00000000	    -10.94030884	    -13.41235495	    -13.86550326	     14.02650921	     90.00000001	      0.00000000	      0.00000000
      2.07000000	     -8.40956695	      2.12097874	     -1.43901756	      0.58926446	      0.92015765	     -0.08741945	     -8.52826417	      1.11147773	     -2.20781251	     25.26723802	     -2.14751020	      0.44099650	      8.63040289	     -2.52794219	     -7.50532236	     34.31335867	      3.69153003	      5.56056445	     24.79841232	     -1.35582024	      0.43281394	      1.33117093	    -12.52617114	     -7.50532236	      0.75919103	     -7.00124049	      1.78610625	      2.05922377	    -13.26244600	     -3.04093927	     33.48977161	     90.00000001	      0.00000000	      0.00000000	    -10.16267197	    -13.53919564	    -13.12273130	     14.36674526	     90.00000001	      0.00000000	      0.00000000
      2.08000000	     -8.16407795	      2.20113612	     -1.13382329	      0.60176823	      0.92276377	     -0.08845190	     -7.42761193	      0.74942703	     -2.67929044	     28.74455906	     -2.03357960	      0.50168720	      6.29252197	     -3.67837960	     -7.50523121	     33.11357315	      4.05159056	      5.27474861	     24.65031584	     -1.55588667	      0.43022917	      2.30577341	    -11.95177674	     -7.50523121	      0.52646408	     -7.18968682	      1.50632608	      1.57432397	    -12.85340248	     -3.08938916	     32.28559164	     90.00000001	      0.00000000	      0.00000000	     -9.23601634	    -13.65871080	    -12.67066110	     14.64378769	     90.00000001	      0.00000000	      0.00000000
      2.09000000	     -7.66110337	      1.97080434	     -0.76327341	      0.61371848	      0.92585126	     -0.09001345	     -6.59079735	      0.68840289	     -2.77901567	     32.02158671	     -1.74023774	      0.55888212	      4.60332999	     -4.26489875	     -7.50519521	     31.64378992	      4.18082797	      5.20015962	     24.54133571	     -1.79113707	      0.42832711	      3.10231950	    -11.50459840	     -7.50519521	     -0.12949705	     -6.90780761	      1.05817810	      1.24384903	    -12.65108293	     -3.11444311	     31.25630439	     90.00000001	      0.00000000	      0.00000000	     -8.19539621	    -13.54708471	    -12.36080358	     15.01884639	     90.00000001	      0.00000000	      0.00000000
